<svg width="72" height="72" viewBox="0 0 72 72" fill="none" xmlns="http://www.w3.org/2000/svg">
<rect width="72" height="72" fill="#0366FF"/>
<path opacity="0.35" d="M35.9994 16.0586C26.6913 16.0586 19.1504 23.6032 19.1504 32.9076C19.1504 39.5649 25.8937 48.7607 30.8474 54.6129C33.5432 57.7955 38.4556 57.7955 41.1515 54.6129C46.1051 48.7607 52.8485 39.5686 52.8485 32.9076C52.8485 23.6032 45.3076 16.0586 35.9994 16.0586Z" fill="white"/>
<path d="M35.9955 39.8159C39.7177 39.8159 42.7351 36.7985 42.7351 33.0763C42.7351 29.3541 39.7177 26.3367 35.9955 26.3367C32.2733 26.3367 29.2559 29.3541 29.2559 33.0763C29.2559 36.7985 32.2733 39.8159 35.9955 39.8159Z" fill="white"/>
</svg>
